<mxfile host="app.diagrams.net" agent="Mozilla/5.0 (X11; Linux x86_64) AppleWebKit/537.36 (KHTML, like Gecko) Chrome/130.0.0.0 Safari/537.36" version="28.0.5">
  <diagram name="Page-1" id="80cgTVsTCMrW9JHc5YFx">
    <mxGraphModel dx="2037" dy="1214" grid="1" gridSize="10" guides="1" tooltips="1" connect="1" arrows="1" fold="1" page="1" pageScale="1" pageWidth="850" pageHeight="1100" math="0" shadow="0">
      <root>
        <mxCell id="0" />
        <mxCell id="1" parent="0" />
        <mxCell id="wbPXefdLMigT9I1iVtEK-69" value="" style="edgeStyle=none;curved=1;rounded=0;orthogonalLoop=1;jettySize=auto;html=1;fontSize=12;startSize=8;endSize=8;fontStyle=1;strokeWidth=3;" edge="1" parent="1" source="wbPXefdLMigT9I1iVtEK-63" target="wbPXefdLMigT9I1iVtEK-68">
          <mxGeometry relative="1" as="geometry" />
        </mxCell>
        <mxCell id="wbPXefdLMigT9I1iVtEK-70" value="&lt;font style=&quot;font-size: 19px;&quot;&gt;Train&lt;/font&gt;" style="edgeLabel;html=1;align=center;verticalAlign=middle;resizable=0;points=[];fontSize=12;fontStyle=1" vertex="1" connectable="0" parent="wbPXefdLMigT9I1iVtEK-69">
          <mxGeometry x="-0.0709" y="-2" relative="1" as="geometry">
            <mxPoint as="offset" />
          </mxGeometry>
        </mxCell>
        <mxCell id="wbPXefdLMigT9I1iVtEK-63" value="" style="rounded=0;whiteSpace=wrap;html=1;glass=0;fillColor=none;fontColor=#ffffff;strokeColor=#001DBC;strokeWidth=5;" vertex="1" parent="1">
          <mxGeometry x="853" y="560" width="200" height="450" as="geometry" />
        </mxCell>
        <mxCell id="wbPXefdLMigT9I1iVtEK-25" value="" style="edgeStyle=none;curved=1;rounded=0;orthogonalLoop=1;jettySize=auto;html=1;fontSize=12;startSize=8;endSize=8;fontStyle=1;strokeWidth=3;" edge="1" parent="1" source="wbPXefdLMigT9I1iVtEK-6" target="wbPXefdLMigT9I1iVtEK-24">
          <mxGeometry relative="1" as="geometry" />
        </mxCell>
        <mxCell id="wbPXefdLMigT9I1iVtEK-6" value="" style="rounded=0;whiteSpace=wrap;html=1;fontStyle=0;fillColor=#ffe6cc;strokeColor=#d79b00;" vertex="1" parent="1">
          <mxGeometry x="360" y="120" width="200" height="290" as="geometry" />
        </mxCell>
        <mxCell id="wbPXefdLMigT9I1iVtEK-10" style="edgeStyle=none;curved=1;rounded=0;orthogonalLoop=1;jettySize=auto;html=1;entryX=0;entryY=0.5;entryDx=0;entryDy=0;fontSize=12;startSize=8;endSize=8;fontStyle=1;strokeWidth=3;" edge="1" parent="1" target="wbPXefdLMigT9I1iVtEK-7">
          <mxGeometry relative="1" as="geometry">
            <mxPoint x="80" y="180" as="sourcePoint" />
          </mxGeometry>
        </mxCell>
        <mxCell id="wbPXefdLMigT9I1iVtEK-16" style="edgeStyle=orthogonalEdgeStyle;rounded=0;orthogonalLoop=1;jettySize=auto;html=1;entryX=0;entryY=0.5;entryDx=0;entryDy=0;fontSize=12;startSize=8;endSize=8;fontStyle=1;strokeWidth=3;" edge="1" parent="1" target="wbPXefdLMigT9I1iVtEK-15">
          <mxGeometry relative="1" as="geometry">
            <mxPoint x="80" y="180" as="sourcePoint" />
            <Array as="points">
              <mxPoint x="180" y="181" />
              <mxPoint x="180" y="330" />
            </Array>
          </mxGeometry>
        </mxCell>
        <mxCell id="wbPXefdLMigT9I1iVtEK-7" value="images" style="image;html=1;image=img/lib/clip_art/general/Full_Folder_128x128.png;fontStyle=1" vertex="1" parent="1">
          <mxGeometry x="410" y="140" width="80" height="80" as="geometry" />
        </mxCell>
        <mxCell id="wbPXefdLMigT9I1iVtEK-9" value="labels" style="image;html=1;image=img/lib/clip_art/general/Full_Folder_128x128.png;fontStyle=1" vertex="1" parent="1">
          <mxGeometry x="410" y="290" width="80" height="80" as="geometry" />
        </mxCell>
        <mxCell id="wbPXefdLMigT9I1iVtEK-17" style="edgeStyle=none;curved=1;rounded=0;orthogonalLoop=1;jettySize=auto;html=1;entryX=0;entryY=0.5;entryDx=0;entryDy=0;fontSize=12;startSize=8;endSize=8;fontStyle=1;strokeWidth=3;" edge="1" parent="1" source="wbPXefdLMigT9I1iVtEK-15" target="wbPXefdLMigT9I1iVtEK-9">
          <mxGeometry relative="1" as="geometry" />
        </mxCell>
        <mxCell id="wbPXefdLMigT9I1iVtEK-15" value="&lt;font style=&quot;font-size: 15px;&quot;&gt;Annotations&lt;/font&gt;" style="rounded=0;whiteSpace=wrap;html=1;fontStyle=1" vertex="1" parent="1">
          <mxGeometry x="210" y="300" width="120" height="60" as="geometry" />
        </mxCell>
        <mxCell id="wbPXefdLMigT9I1iVtEK-18" value="Data" style="text;html=1;align=center;verticalAlign=middle;whiteSpace=wrap;rounded=0;fontSize=23;fontStyle=1" vertex="1" parent="1">
          <mxGeometry x="360" y="90" width="60" height="30" as="geometry" />
        </mxCell>
        <mxCell id="wbPXefdLMigT9I1iVtEK-65" value="" style="edgeStyle=none;curved=1;rounded=0;orthogonalLoop=1;jettySize=auto;html=1;fontSize=12;startSize=8;endSize=8;fontStyle=1;strokeWidth=3;" edge="1" parent="1" source="wbPXefdLMigT9I1iVtEK-19" target="wbPXefdLMigT9I1iVtEK-61">
          <mxGeometry relative="1" as="geometry" />
        </mxCell>
        <mxCell id="wbPXefdLMigT9I1iVtEK-19" value="" style="rounded=0;whiteSpace=wrap;html=1;fillColor=#d0cee2;strokeColor=#56517e;strokeWidth=5;" vertex="1" parent="1">
          <mxGeometry x="360" y="560" width="200" height="450" as="geometry" />
        </mxCell>
        <mxCell id="wbPXefdLMigT9I1iVtEK-23" value="aug_data" style="text;html=1;align=center;verticalAlign=middle;whiteSpace=wrap;rounded=0;fontSize=23;fontStyle=1" vertex="1" parent="1">
          <mxGeometry x="365" y="530" width="60" height="30" as="geometry" />
        </mxCell>
        <mxCell id="wbPXefdLMigT9I1iVtEK-27" style="edgeStyle=none;curved=1;rounded=0;orthogonalLoop=1;jettySize=auto;html=1;entryX=0.5;entryY=0;entryDx=0;entryDy=0;fontSize=12;startSize=8;endSize=8;fontStyle=1;strokeWidth=3;" edge="1" parent="1" source="wbPXefdLMigT9I1iVtEK-24" target="wbPXefdLMigT9I1iVtEK-19">
          <mxGeometry relative="1" as="geometry" />
        </mxCell>
        <mxCell id="wbPXefdLMigT9I1iVtEK-24" value="&lt;ol&gt;&lt;li&gt;&lt;font style=&quot;font-size: 15px;&quot;&gt;Data Augmentation&lt;/font&gt;&lt;/li&gt;&lt;li&gt;&lt;font style=&quot;font-size: 15px;&quot;&gt;Train test split&lt;/font&gt;&lt;/li&gt;&lt;/ol&gt;" style="rounded=1;whiteSpace=wrap;html=1;align=left;" vertex="1" parent="1">
          <mxGeometry x="370" y="450" width="180" height="60" as="geometry" />
        </mxCell>
        <mxCell id="wbPXefdLMigT9I1iVtEK-30" value="train" style="html=1;verticalLabelPosition=bottom;align=center;labelBackgroundColor=#ffffff;verticalAlign=top;strokeWidth=2;strokeColor=#0080F0;shadow=0;dashed=0;shape=mxgraph.ios7.icons.folder;" vertex="1" parent="1">
          <mxGeometry x="380" y="580" width="160" height="120" as="geometry" />
        </mxCell>
        <mxCell id="wbPXefdLMigT9I1iVtEK-31" value="test" style="html=1;verticalLabelPosition=bottom;align=center;labelBackgroundColor=#ffffff;verticalAlign=top;strokeWidth=2;strokeColor=#0080F0;shadow=0;dashed=0;shape=mxgraph.ios7.icons.folder;" vertex="1" parent="1">
          <mxGeometry x="380" y="720" width="160" height="120" as="geometry" />
        </mxCell>
        <mxCell id="wbPXefdLMigT9I1iVtEK-32" value="val" style="html=1;verticalLabelPosition=bottom;align=center;labelBackgroundColor=#ffffff;verticalAlign=top;strokeWidth=2;strokeColor=#0080F0;shadow=0;dashed=0;shape=mxgraph.ios7.icons.folder;" vertex="1" parent="1">
          <mxGeometry x="380" y="860" width="160" height="120" as="geometry" />
        </mxCell>
        <mxCell id="wbPXefdLMigT9I1iVtEK-34" value="images" style="image;html=1;image=img/lib/clip_art/general/Full_Folder_128x128.png" vertex="1" parent="1">
          <mxGeometry x="385" y="610" width="45" height="40" as="geometry" />
        </mxCell>
        <mxCell id="wbPXefdLMigT9I1iVtEK-36" value="images" style="image;html=1;image=img/lib/clip_art/general/Full_Folder_128x128.png" vertex="1" parent="1">
          <mxGeometry x="385" y="750" width="45" height="40" as="geometry" />
        </mxCell>
        <mxCell id="wbPXefdLMigT9I1iVtEK-37" value="images" style="image;html=1;image=img/lib/clip_art/general/Full_Folder_128x128.png" vertex="1" parent="1">
          <mxGeometry x="385" y="890" width="45" height="40" as="geometry" />
        </mxCell>
        <mxCell id="wbPXefdLMigT9I1iVtEK-38" value="labels" style="image;html=1;image=img/lib/clip_art/general/Full_Folder_128x128.png" vertex="1" parent="1">
          <mxGeometry x="475" y="610" width="45" height="40" as="geometry" />
        </mxCell>
        <mxCell id="wbPXefdLMigT9I1iVtEK-39" value="labels" style="image;html=1;image=img/lib/clip_art/general/Full_Folder_128x128.png" vertex="1" parent="1">
          <mxGeometry x="475" y="750" width="45" height="40" as="geometry" />
        </mxCell>
        <mxCell id="wbPXefdLMigT9I1iVtEK-40" value="labels" style="image;html=1;image=img/lib/clip_art/general/Full_Folder_128x128.png" vertex="1" parent="1">
          <mxGeometry x="475" y="890" width="45" height="40" as="geometry" />
        </mxCell>
        <mxCell id="wbPXefdLMigT9I1iVtEK-49" value="train" style="swimlane;fontStyle=1;childLayout=stackLayout;horizontal=1;startSize=30;horizontalStack=0;resizeParent=1;resizeParentMax=0;resizeLast=0;collapsible=1;marginBottom=0;whiteSpace=wrap;html=1;glass=0;fillColor=#f0a30a;fontColor=#000000;strokeColor=#BD7000;" vertex="1" parent="1">
          <mxGeometry x="883" y="600" width="140" height="90" as="geometry" />
        </mxCell>
        <mxCell id="wbPXefdLMigT9I1iVtEK-50" value="train_images_dataset" style="text;align=left;verticalAlign=middle;spacingLeft=4;spacingRight=4;overflow=hidden;points=[[0,0.5],[1,0.5]];portConstraint=eastwest;rotatable=0;whiteSpace=wrap;html=1;glass=0;" vertex="1" parent="wbPXefdLMigT9I1iVtEK-49">
          <mxGeometry y="30" width="140" height="30" as="geometry" />
        </mxCell>
        <mxCell id="wbPXefdLMigT9I1iVtEK-51" value="train_label_dataset" style="text;align=left;verticalAlign=middle;spacingLeft=4;spacingRight=4;overflow=hidden;points=[[0,0.5],[1,0.5]];portConstraint=eastwest;rotatable=0;whiteSpace=wrap;html=1;glass=0;" vertex="1" parent="wbPXefdLMigT9I1iVtEK-49">
          <mxGeometry y="60" width="140" height="30" as="geometry" />
        </mxCell>
        <mxCell id="wbPXefdLMigT9I1iVtEK-53" value="test" style="swimlane;fontStyle=1;childLayout=stackLayout;horizontal=1;startSize=30;horizontalStack=0;resizeParent=1;resizeParentMax=0;resizeLast=0;collapsible=1;marginBottom=0;whiteSpace=wrap;html=1;glass=0;fillColor=#f0a30a;fontColor=#000000;strokeColor=#BD7000;" vertex="1" parent="1">
          <mxGeometry x="883" y="740" width="140" height="90" as="geometry" />
        </mxCell>
        <mxCell id="wbPXefdLMigT9I1iVtEK-54" value="test_images_dataset" style="text;align=left;verticalAlign=middle;spacingLeft=4;spacingRight=4;overflow=hidden;points=[[0,0.5],[1,0.5]];portConstraint=eastwest;rotatable=0;whiteSpace=wrap;html=1;glass=0;" vertex="1" parent="wbPXefdLMigT9I1iVtEK-53">
          <mxGeometry y="30" width="140" height="30" as="geometry" />
        </mxCell>
        <mxCell id="wbPXefdLMigT9I1iVtEK-55" value="test_label_dataset" style="text;align=left;verticalAlign=middle;spacingLeft=4;spacingRight=4;overflow=hidden;points=[[0,0.5],[1,0.5]];portConstraint=eastwest;rotatable=0;whiteSpace=wrap;html=1;glass=0;" vertex="1" parent="wbPXefdLMigT9I1iVtEK-53">
          <mxGeometry y="60" width="140" height="30" as="geometry" />
        </mxCell>
        <mxCell id="wbPXefdLMigT9I1iVtEK-56" value="val" style="swimlane;fontStyle=1;childLayout=stackLayout;horizontal=1;startSize=30;horizontalStack=0;resizeParent=1;resizeParentMax=0;resizeLast=0;collapsible=1;marginBottom=0;whiteSpace=wrap;html=1;glass=0;fillColor=#f0a30a;fontColor=#000000;strokeColor=#BD7000;" vertex="1" parent="1">
          <mxGeometry x="883" y="880" width="140" height="90" as="geometry" />
        </mxCell>
        <mxCell id="wbPXefdLMigT9I1iVtEK-57" value="val_images_dataset" style="text;align=left;verticalAlign=middle;spacingLeft=4;spacingRight=4;overflow=hidden;points=[[0,0.5],[1,0.5]];portConstraint=eastwest;rotatable=0;whiteSpace=wrap;html=1;glass=0;" vertex="1" parent="wbPXefdLMigT9I1iVtEK-56">
          <mxGeometry y="30" width="140" height="30" as="geometry" />
        </mxCell>
        <mxCell id="wbPXefdLMigT9I1iVtEK-58" value="val_label_dataset" style="text;align=left;verticalAlign=middle;spacingLeft=4;spacingRight=4;overflow=hidden;points=[[0,0.5],[1,0.5]];portConstraint=eastwest;rotatable=0;whiteSpace=wrap;html=1;glass=0;" vertex="1" parent="wbPXefdLMigT9I1iVtEK-56">
          <mxGeometry y="60" width="140" height="30" as="geometry" />
        </mxCell>
        <mxCell id="wbPXefdLMigT9I1iVtEK-59" value="collect raw images from source" style="shape=parallelogram;perimeter=parallelogramPerimeter;whiteSpace=wrap;html=1;fixedSize=1;fontStyle=1" vertex="1" parent="1">
          <mxGeometry x="10" y="150" width="160" height="60" as="geometry" />
        </mxCell>
        <mxCell id="wbPXefdLMigT9I1iVtEK-66" value="" style="edgeStyle=none;curved=1;rounded=0;orthogonalLoop=1;jettySize=auto;html=1;fontSize=12;startSize=8;endSize=8;entryX=0;entryY=0.5;entryDx=0;entryDy=0;fontStyle=1;strokeWidth=3;" edge="1" parent="1" source="wbPXefdLMigT9I1iVtEK-61" target="wbPXefdLMigT9I1iVtEK-63">
          <mxGeometry relative="1" as="geometry" />
        </mxCell>
        <mxCell id="wbPXefdLMigT9I1iVtEK-61" value="&lt;ol&gt;&lt;li&gt;&lt;span style=&quot;background-color: transparent; color: light-dark(rgb(0, 0, 0), rgb(255, 255, 255));&quot;&gt;&lt;font style=&quot;font-size: 14px;&quot;&gt;Convert to tensorflow dataset.&lt;/font&gt;&lt;/span&gt;&lt;/li&gt;&lt;li&gt;&lt;span style=&quot;background-color: transparent; color: light-dark(rgb(0, 0, 0), rgb(255, 255, 255));&quot;&gt;&lt;font style=&quot;font-size: 14px;&quot;&gt;Normalize images.&lt;/font&gt;&lt;/span&gt;&lt;/li&gt;&lt;li&gt;&lt;span style=&quot;background-color: transparent; color: light-dark(rgb(0, 0, 0), rgb(255, 255, 255));&quot;&gt;&lt;font style=&quot;font-size: 14px;&quot;&gt;typecasted to required type.&lt;/font&gt;&lt;/span&gt;&lt;/li&gt;&lt;li&gt;&lt;span style=&quot;background-color: transparent; color: light-dark(rgb(0, 0, 0), rgb(255, 255, 255));&quot;&gt;&lt;font style=&quot;font-size: 14px;&quot;&gt;Reshape into desired input size&lt;/font&gt;&lt;/span&gt;&lt;/li&gt;&lt;li&gt;&lt;span style=&quot;background-color: transparent; color: light-dark(rgb(0, 0, 0), rgb(255, 255, 255));&quot;&gt;&lt;font style=&quot;font-size: 14px;&quot;&gt;Converted to batches of &#39;n=8&#39; images each&lt;/font&gt;&lt;/span&gt;&lt;/li&gt;&lt;/ol&gt;" style="rounded=0;whiteSpace=wrap;html=1;align=left;fontStyle=1" vertex="1" parent="1">
          <mxGeometry x="600" y="685" width="210" height="200" as="geometry" />
        </mxCell>
        <mxCell id="wbPXefdLMigT9I1iVtEK-67" value="tensorflow datasets" style="text;html=1;align=center;verticalAlign=middle;whiteSpace=wrap;rounded=0;fontSize=19;glass=0;fontStyle=1" vertex="1" parent="1">
          <mxGeometry x="853" y="530" width="187" height="30" as="geometry" />
        </mxCell>
        <mxCell id="wbPXefdLMigT9I1iVtEK-76" value="" style="edgeStyle=none;curved=1;rounded=0;orthogonalLoop=1;jettySize=auto;html=1;fontSize=12;startSize=8;endSize=8;fontStyle=1;strokeWidth=3;" edge="1" parent="1" source="wbPXefdLMigT9I1iVtEK-68" target="wbPXefdLMigT9I1iVtEK-75">
          <mxGeometry relative="1" as="geometry" />
        </mxCell>
        <mxCell id="wbPXefdLMigT9I1iVtEK-68" value="&lt;font style=&quot;font-size: 18px;&quot;&gt;model&lt;/font&gt;" style="rounded=0;whiteSpace=wrap;html=1;fontStyle=1;fillColor=#b1ddf0;strokeColor=#10739e;" vertex="1" parent="1">
          <mxGeometry x="1180" y="725" width="120" height="120" as="geometry" />
        </mxCell>
        <mxCell id="wbPXefdLMigT9I1iVtEK-73" value="" style="edgeStyle=none;curved=1;rounded=0;orthogonalLoop=1;jettySize=auto;html=1;fontSize=12;startSize=8;endSize=8;fontStyle=1;strokeWidth=3;" edge="1" parent="1" source="wbPXefdLMigT9I1iVtEK-71" target="wbPXefdLMigT9I1iVtEK-68">
          <mxGeometry relative="1" as="geometry" />
        </mxCell>
        <mxCell id="wbPXefdLMigT9I1iVtEK-71" value="localisation loss&lt;div&gt;classification loss&lt;/div&gt;" style="shape=parallelogram;perimeter=parallelogramPerimeter;whiteSpace=wrap;html=1;fixedSize=1;fontStyle=1" vertex="1" parent="1">
          <mxGeometry x="1150" y="615" width="180" height="60" as="geometry" />
        </mxCell>
        <mxCell id="wbPXefdLMigT9I1iVtEK-74" value="" style="edgeStyle=none;curved=1;rounded=0;orthogonalLoop=1;jettySize=auto;html=1;fontSize=12;startSize=8;endSize=8;fontStyle=1;strokeWidth=3;" edge="1" parent="1" source="wbPXefdLMigT9I1iVtEK-72" target="wbPXefdLMigT9I1iVtEK-68">
          <mxGeometry relative="1" as="geometry" />
        </mxCell>
        <mxCell id="wbPXefdLMigT9I1iVtEK-72" value="Adam Optimiser&lt;div&gt;(initial learning rate)&lt;/div&gt;&lt;div&gt;(learning rate decay per step)&lt;/div&gt;" style="shape=parallelogram;perimeter=parallelogramPerimeter;whiteSpace=wrap;html=1;fixedSize=1;fontStyle=1" vertex="1" parent="1">
          <mxGeometry x="1125" y="920" width="230" height="60" as="geometry" />
        </mxCell>
        <mxCell id="wbPXefdLMigT9I1iVtEK-81" style="edgeStyle=orthogonalEdgeStyle;rounded=0;orthogonalLoop=1;jettySize=auto;html=1;entryX=0;entryY=0.5;entryDx=0;entryDy=0;fontSize=12;startSize=8;endSize=8;fontStyle=1;strokeWidth=3;" edge="1" parent="1" source="wbPXefdLMigT9I1iVtEK-75" target="wbPXefdLMigT9I1iVtEK-79">
          <mxGeometry relative="1" as="geometry">
            <Array as="points">
              <mxPoint x="1530" y="760" />
              <mxPoint x="1530" y="660" />
            </Array>
          </mxGeometry>
        </mxCell>
        <mxCell id="wbPXefdLMigT9I1iVtEK-82" style="edgeStyle=orthogonalEdgeStyle;rounded=0;orthogonalLoop=1;jettySize=auto;html=1;entryX=0;entryY=0.5;entryDx=0;entryDy=0;fontSize=12;startSize=8;endSize=8;fontStyle=1;strokeWidth=3;" edge="1" parent="1" source="wbPXefdLMigT9I1iVtEK-75" target="wbPXefdLMigT9I1iVtEK-80">
          <mxGeometry relative="1" as="geometry">
            <Array as="points">
              <mxPoint x="1530" y="810" />
              <mxPoint x="1530" y="890" />
            </Array>
          </mxGeometry>
        </mxCell>
        <mxCell id="wbPXefdLMigT9I1iVtEK-75" value="model.predict" style="rounded=0;whiteSpace=wrap;html=1;fontStyle=1" vertex="1" parent="1">
          <mxGeometry x="1370" y="742.5" width="120" height="85" as="geometry" />
        </mxCell>
        <mxCell id="wbPXefdLMigT9I1iVtEK-78" value="" style="edgeStyle=none;curved=1;rounded=0;orthogonalLoop=1;jettySize=auto;html=1;fontSize=12;startSize=8;endSize=8;fontStyle=1;strokeWidth=3;" edge="1" parent="1" source="wbPXefdLMigT9I1iVtEK-77" target="wbPXefdLMigT9I1iVtEK-75">
          <mxGeometry relative="1" as="geometry" />
        </mxCell>
        <mxCell id="wbPXefdLMigT9I1iVtEK-77" value="Input Test imge" style="shape=parallelogram;perimeter=parallelogramPerimeter;whiteSpace=wrap;html=1;fixedSize=1;fontStyle=1" vertex="1" parent="1">
          <mxGeometry x="1370" y="610" width="120" height="60" as="geometry" />
        </mxCell>
        <mxCell id="wbPXefdLMigT9I1iVtEK-79" value="output class" style="shape=parallelogram;perimeter=parallelogramPerimeter;whiteSpace=wrap;html=1;fixedSize=1;fontStyle=1" vertex="1" parent="1">
          <mxGeometry x="1550" y="630" width="120" height="60" as="geometry" />
        </mxCell>
        <mxCell id="wbPXefdLMigT9I1iVtEK-80" value="bounding&lt;div&gt;&amp;nbsp;boxes&lt;/div&gt;&lt;div&gt;&amp;nbsp;coordinates&lt;/div&gt;" style="shape=parallelogram;perimeter=parallelogramPerimeter;whiteSpace=wrap;html=1;fixedSize=1;fontStyle=1;align=center;" vertex="1" parent="1">
          <mxGeometry x="1550" y="860" width="120" height="60" as="geometry" />
        </mxCell>
      </root>
    </mxGraphModel>
  </diagram>
</mxfile>
